<?xml version="1.0" encoding="iso-8859-1"?>
<!-- Generator: Adobe Illustrator 19.0.0, SVG Export Plug-In . SVG Version: 6.00 Build 0)  -->
<svg version="1.1" id="Layer_1" xmlns="http://www.w3.org/2000/svg" xmlns:xlink="http://www.w3.org/1999/xlink" x="0px" y="0px"
	 viewBox="0 0 511.803 511.803" style="enable-background:new 0 0 511.803 511.803;" xml:space="preserve">
<g transform="translate(1 1)">
	<path style="fill:#E4667F;" d="M295.008,63.657c1.707-4.267,2.56-8.533,2.56-13.653c0-20.48-16.213-39.253-36.693-41.813
		c-26.453-4.267-48.64,16.213-48.64,41.813c0,5.12,0.853,9.387,2.56,13.653c4.267,11.947,5.973,24.747,2.56,37.547
		c-5.973,25.6-21.333,42.667-39.253,42.667h153.6c-17.92,0-33.28-17.067-39.253-41.813
		C289.035,89.257,290.742,76.457,295.008,63.657"/>
	<path style="fill:#DD3859;" d="M292.448,102.057c-3.413-12.8-0.853-25.6,3.413-37.547c0.853-5.12,1.707-9.387,1.707-14.507
		c0-20.48-16.213-39.253-36.693-41.813c-5.12-0.853-10.24-0.853-14.507,0c19.627,3.413,34.133,21.333,34.133,41.813
		c0,5.12-0.853,9.387-2.56,13.653c-4.267,11.947-5.973,25.6-3.413,37.547c6.827,25.6,22.187,42.667,40.107,42.667h17.067
		C313.782,143.87,298.422,126.803,292.448,102.057"/>
	<path style="fill:#FFFFFF;" d="M217.355,102.057c3.413-12.8,0.853-25.6-3.413-37.547c-0.853-5.12-1.707-9.387-1.707-14.507
		c0-20.48,16.213-39.253,36.693-41.813c5.12-0.853,10.24-0.853,14.507,0c-19.627,3.413-34.133,21.333-34.133,41.813
		c0,5.12,0.853,9.387,2.56,13.653c4.267,11.947,5.973,25.6,3.413,37.547c-6.827,25.6-22.187,42.667-40.107,42.667h-17.067
		C196.022,143.87,211.382,126.803,217.355,102.057"/>
	<path style="fill:#FDCC00;" d="M382.902,212.137h-256V169.47c0-14.507,11.093-25.6,25.6-25.6h204.8c14.507,0,25.6,11.093,25.6,25.6
		V212.137z"/>
	<path style="fill:#FFA800;" d="M357.302,143.87h-25.6c14.507,0,25.6,11.093,25.6,25.6v42.667h25.6V169.47
		C382.902,154.963,371.808,143.87,357.302,143.87"/>
	<path style="fill:#FFFFFF;" d="M152.502,143.87h25.6c-14.507,0-25.6,11.093-25.6,25.6v42.667h-25.6V169.47
		C126.902,154.963,137.995,143.87,152.502,143.87"/>
	<g>
		<path style="fill:#FFE100;" d="M143.968,357.203v110.933c0,18.773,15.36,34.133,34.133,34.133h153.6
			c18.773,0,34.133-15.36,34.133-34.133V357.203H143.968z"/>
		<polygon style="fill:#FFE100;" points="143.968,357.203 365.835,357.203 365.835,212.137 143.968,212.137 		"/>
	</g>
	<g>
		<path style="fill:#FFA800;" d="M340.235,357.203v110.933c0,18.773-15.36,34.133-34.133,34.133h25.6
			c18.773,0,34.133-15.36,34.133-34.133V357.203H340.235z"/>
		<polygon style="fill:#FFA800;" points="340.235,357.203 365.835,357.203 365.835,212.137 340.235,212.137 		"/>
	</g>
	<g>
		<path style="fill:#FFFFFF;" d="M169.568,357.203v110.933c0,18.773,15.36,34.133,34.133,34.133h-25.6
			c-18.773,0-34.133-15.36-34.133-34.133V357.203H169.568z"/>
		<polygon style="fill:#FFFFFF;" points="143.968,357.203 169.568,357.203 169.568,212.137 143.968,212.137 		"/>
	</g>
	<path d="M382.902,220.67h-256c-5.12,0-8.533-3.413-8.533-8.533V169.47c0-18.773,15.36-34.133,34.133-34.133h204.8
		c18.773,0,34.133,15.36,34.133,34.133v42.667C391.435,217.257,388.022,220.67,382.902,220.67z M135.435,203.603h238.933V169.47
		c0-9.387-7.68-17.067-17.067-17.067h-204.8c-9.387,0-17.067,7.68-17.067,17.067V203.603z"/>
	<path d="M263.435,41.47c0,5.12-3.413,8.533-8.533,8.533c-5.12,0-8.533-3.413-8.533-8.533s3.413-8.533,8.533-8.533
		C260.022,32.937,263.435,36.35,263.435,41.47"/>
	<path d="M178.102,451.07h-34.133c-5.12,0-8.533-3.413-8.533-8.533s3.413-8.533,8.533-8.533h34.133c5.12,0,8.533,3.413,8.533,8.533
		S183.222,451.07,178.102,451.07z"/>
	<path d="M195.168,408.403h-51.2c-5.12,0-8.533-3.413-8.533-8.533c0-5.12,3.413-8.533,8.533-8.533h51.2
		c5.12,0,8.533,3.413,8.533,8.533C203.702,404.99,200.288,408.403,195.168,408.403z"/>
	<path d="M195.168,323.07h-51.2c-5.12,0-8.533-3.413-8.533-8.533s3.413-8.533,8.533-8.533h51.2c5.12,0,8.533,3.413,8.533,8.533
		S200.288,323.07,195.168,323.07z"/>
	<path d="M178.102,280.403h-34.133c-5.12,0-8.533-3.413-8.533-8.533c0-5.12,3.413-8.533,8.533-8.533h34.133
		c5.12,0,8.533,3.413,8.533,8.533C186.635,276.99,183.222,280.403,178.102,280.403z"/>
	<path d="M331.702,510.803h-153.6c-23.893,0-42.667-18.773-42.667-42.667V357.203c0-5.12,3.413-8.533,8.533-8.533h221.867
		c5.12,0,8.533,3.413,8.533,8.533v110.933C374.368,492.03,355.595,510.803,331.702,510.803z M152.502,365.737v102.4
		c0,14.507,11.093,25.6,25.6,25.6h153.6c14.507,0,25.6-11.093,25.6-25.6v-102.4H152.502z"/>
	<path d="M365.835,365.737H143.968c-5.12,0-8.533-3.413-8.533-8.533V212.137c0-5.12,3.413-8.533,8.533-8.533h221.867
		c5.12,0,8.533,3.413,8.533,8.533v145.067C374.368,362.323,370.955,365.737,365.835,365.737z M152.502,348.67h204.8v-128h-204.8
		V348.67z"/>
	<path d="M331.702,152.403h-153.6c-5.12,0-8.533-3.413-8.533-8.533c0-5.12,3.413-8.533,8.533-8.533c12.8,0,25.6-14.507,31.573-35.84
		c1.707-9.387,0.853-20.48-3.413-32.427c-1.707-5.973-2.56-11.093-2.56-17.067c0-14.507,6.827-29.013,17.92-38.4
		s26.453-14.507,40.96-11.947c24.747,3.413,43.52,24.747,43.52,50.347c0,5.973-0.853,11.093-2.56,17.067l0,0
		c-4.267,12.8-5.12,23.04-2.56,33.28c5.12,20.48,17.92,34.987,30.72,34.987c5.12,0,8.533,3.413,8.533,8.533
		C340.235,148.99,336.822,152.403,331.702,152.403z M210.528,135.337h88.747c-6.827-8.533-11.947-18.773-15.36-31.573
		s-2.56-26.453,3.413-42.667c0.853-3.413,1.707-7.68,1.707-11.093c0-17.067-12.8-31.573-29.013-34.133
		c-10.24-1.707-19.627,1.707-27.307,7.68c-7.68,6.827-11.947,16.213-11.947,26.453c0,4.267,0.853,7.68,1.707,11.093
		c5.12,15.36,6.827,29.867,3.413,42.667C222.475,116.563,217.355,126.803,210.528,135.337z M295.008,63.657L295.008,63.657
		L295.008,63.657z"/>
</g>
<g>
</g>
<g>
</g>
<g>
</g>
<g>
</g>
<g>
</g>
<g>
</g>
<g>
</g>
<g>
</g>
<g>
</g>
<g>
</g>
<g>
</g>
<g>
</g>
<g>
</g>
<g>
</g>
<g>
</g>
</svg>
