<?xml version="1.0" encoding="iso-8859-1"?>
<!-- Generator: Adobe Illustrator 19.0.0, SVG Export Plug-In . SVG Version: 6.00 Build 0)  -->
<svg version="1.1" id="Layer_1" xmlns="http://www.w3.org/2000/svg" xmlns:xlink="http://www.w3.org/1999/xlink" x="0px" y="0px"
	 viewBox="0 0 512.001 512.001" style="enable-background:new 0 0 512.001 512.001;" xml:space="preserve">
<path style="fill:#ADD9FF;" d="M456.128,149.642l-31.482-25.758V76.852h-87.569v47.032l-31.482,25.758
	c-6.791,5.556-12.347,17.437-12.347,26.402v294.461c0,17.93,14.16,32.6,31.467,32.6h112.295c17.307,0,31.467-14.669,31.467-32.6
	V176.044C468.475,167.079,462.918,155.198,456.128,149.642z"/>
<path style="fill:#C8E6FF;" d="M333.006,484.409V168.784c0-4.587,2.371-12.746,4.532-15.589l25.961-29.827V76.852h-26.422v47.032
	l-31.482,25.758c-6.791,5.556-12.347,17.437-12.347,26.402v294.461c0,17.93,14.16,32.6,31.467,32.6h15.953h3.558
	C338.038,503.106,333.006,494.718,333.006,484.409z"/>
<path style="fill:#94C8EF;" d="M468.475,470.505V176.044c0-8.965-5.557-20.846-12.347-26.402l-31.482-25.758V76.852h-27.027v46.399
	l25.96,29.826c2.161,2.844,4.532,11.001,4.532,15.589v315.625c0,10.31-5.032,18.696-11.218,18.696h4.158h18.506
	C455.682,501.632,468.475,487.546,468.475,470.505z"/>
<rect x="337.079" y="44.526" style="fill:#7AB6DE;" width="87.565" height="32.321"/>
<path style="fill:#C8E6FF;" d="M411.621,9.698H347.93c-7.681,0-13.214,6.292-13.214,13.981v29.142h90.117V23.679
	C424.833,15.989,419.302,9.698,411.621,9.698z"/>
<path style="fill:#ADD9FF;" d="M206.407,149.642l-31.482-25.758V76.852H87.356v47.032l-31.482,25.758
	c-6.791,5.556-12.347,17.437-12.347,26.402v294.461c0,17.93,14.16,32.6,31.467,32.6h112.295c17.307,0,31.467-14.669,31.467-32.6
	V176.044C218.754,167.079,213.197,155.198,206.407,149.642z"/>
<path style="fill:#C8E6FF;" d="M83.285,484.409V168.784c0-4.587,2.371-12.746,4.532-15.589l25.961-29.827V76.852H87.356v47.032
	l-31.482,25.758c-6.791,5.556-12.347,17.437-12.347,26.402v294.461c0,17.93,14.16,32.6,31.467,32.6h15.953h3.558
	C88.317,503.106,83.285,494.718,83.285,484.409z"/>
<path style="fill:#94C8EF;" d="M218.754,470.505V176.044c0-8.965-5.557-20.846-12.347-26.402l-31.482-25.758V76.852h-27.027v46.399
	l25.96,29.826c2.161,2.844,4.532,11.001,4.532,15.589v315.625c0,10.31-5.032,18.696-11.218,18.696h4.158h18.506
	C205.961,501.632,218.754,487.546,218.754,470.505z"/>
<rect x="87.359" y="44.526" style="fill:#7AB6DE;" width="87.565" height="32.321"/>
<path style="fill:#C8E6FF;" d="M162.986,10.784H99.294c-7.681,0-13.213,6.292-13.213,13.981v29.142h90.117V24.765
	C176.199,17.074,170.667,10.784,162.986,10.784z"/>
<path style="fill:#ADD9FF;" d="M330.182,148.557L298.7,122.798V75.766H211.13v47.032l-31.482,25.758
	c-6.791,5.556-12.347,17.437-12.347,26.402v294.461c0,17.93,14.16,32.6,31.467,32.6h112.295c17.307,0,31.467-14.669,31.467-32.6
	V174.959C342.529,165.994,336.972,154.112,330.182,148.557z"/>
<path style="fill:#C8E6FF;" d="M207.06,483.323V167.698c0-4.587,2.371-12.746,4.532-15.589l25.961-27.656V75.766h-26.422v47.032
	l-31.482,25.758c-6.791,5.556-12.347,17.437-12.347,26.402v294.461c0,17.93,14.16,32.6,31.467,32.6h15.953h3.558
	C212.092,502.02,207.06,493.633,207.06,483.323z"/>
<path style="fill:#94C8EF;" d="M342.529,469.419V174.959c0-8.965-5.557-20.846-12.347-26.402L298.7,122.798V75.766h-27.027v48.571
	l25.96,27.655c2.161,2.844,4.532,11.001,4.532,15.589v315.625c0,10.31-5.032,18.696-11.218,18.696h4.158h18.507
	C329.735,500.547,342.529,486.46,342.529,469.419z"/>
<rect x="211.133" y="43.441" style="fill:#7AB6DE;" width="87.565" height="32.321"/>
<path style="fill:#C8E6FF;" d="M286.761,6.441H223.07c-7.681,0-13.213,6.292-13.213,13.981v29.142h90.117V20.422
	C299.973,12.731,294.441,6.441,286.761,6.441z"/>
<g>
	<path style="fill:#1D2328;" d="M435.608,80.36c0-4.497-3.645-8.143-8.143-8.143h-93.292c-4.498,0-8.143,3.646-8.143,8.143
		s3.645,8.143,8.143,8.143h93.292C431.964,88.503,435.608,84.857,435.608,80.36z"/>
	<path style="fill:#1D2328;" d="M460.378,143.078l-30.324-23.948v-13.327c0-4.497-3.645-8.143-8.143-8.143s-8.143,3.646-8.143,8.143
		v17.273c0,2.492,1.141,4.846,3.097,6.391l33.42,26.393c5.239,4.137,10.011,13.984,10.011,20.662v57.324h-67.859
		c-4.498,0-8.143,3.646-8.143,8.143c0,4.497,3.645,8.143,8.143,8.143h67.859v49.181h-67.859c-4.498,0-8.143,3.646-8.143,8.143
		c0,4.497,3.645,8.143,8.143,8.143h67.859v114.649h-67.859c-4.498,0-8.143,3.646-8.143,8.143s3.645,8.143,8.143,8.143h67.859v23.921
		c0,13.929-11.331,25.261-25.261,25.261h-51.858c-4.498,0-8.143,3.646-8.143,8.143c0,4.497,3.645,8.143,8.143,8.143h51.858
		c22.909,0,41.547-18.638,41.547-41.547V176.522C476.582,164.748,469.616,150.371,460.378,143.078z"/>
	<path style="fill:#1D2328;" d="M392.437,381.066h43.43c4.498,0,8.143-3.646,8.143-8.143c0-4.497-3.645-8.143-8.143-8.143h-43.43
		c-4.498,0-8.143,3.646-8.143,8.143C384.294,377.42,387.939,381.066,392.437,381.066z"/>
	<path style="fill:#1D2328;" d="M392.437,184.664h43.43c4.498,0,8.143-3.646,8.143-8.143c0-4.497-3.645-8.143-8.143-8.143h-43.43
		c-4.498,0-8.143,3.646-8.143,8.143C384.294,181.018,387.939,184.664,392.437,184.664z"/>
	<path style="fill:#1D2328;" d="M185.97,80.36c0-4.497-3.646-8.143-8.143-8.143H84.535c-4.497,0-8.143,3.646-8.143,8.143
		s3.646,8.143,8.143,8.143h93.292C182.324,88.503,185.97,84.857,185.97,80.36z"/>
	<path style="fill:#1D2328;" d="M128.822,495.714H76.965c-13.929,0-25.261-11.332-25.261-25.261v-89.388h67.859
		c4.497,0,8.143-3.646,8.143-8.143c0-4.497-3.646-8.143-8.143-8.143H51.704V250.131h67.859c4.497,0,8.143-3.646,8.143-8.143
		c0-4.497-3.646-8.143-8.143-8.143H51.704v-57.324c0-6.677,4.771-16.525,10.012-20.663l33.42-26.392
		c1.955-1.544,3.097-3.899,3.097-6.391v-17.273c0-4.497-3.646-8.143-8.143-8.143c-4.497,0-8.143,3.646-8.143,8.143v13.327
		l-30.324,23.947c-9.237,7.295-16.204,21.673-16.204,33.444v293.932c0,22.909,18.638,41.547,41.547,41.547h51.858
		c4.497,0,8.143-3.646,8.143-8.143C136.965,499.36,133.319,495.714,128.822,495.714z"/>
	<path style="fill:#1D2328;" d="M119.564,430.247h-43.43c-4.497,0-8.143,3.646-8.143,8.143s3.646,8.143,8.143,8.143h43.43
		c4.497,0,8.143-3.646,8.143-8.143S124.061,430.247,119.564,430.247z"/>
	<path style="fill:#1D2328;" d="M119.564,299.312h-43.43c-4.497,0-8.143,3.646-8.143,8.143c0,4.497,3.646,8.143,8.143,8.143h43.43
		c4.497,0,8.143-3.646,8.143-8.143C127.707,302.958,124.061,299.312,119.564,299.312z"/>
	<path style="fill:#1D2328;" d="M76.133,168.378c-4.497,0-8.143,3.646-8.143,8.143c0,4.497,3.646,8.143,8.143,8.143h43.43
		c4.497,0,8.143-3.646,8.143-8.143c0-4.497-3.646-8.143-8.143-8.143H76.133z"/>
	<path style="fill:#1D2328;" d="M208.268,88.503h93.292c4.498,0,8.143-3.646,8.143-8.143s-3.645-8.143-8.143-8.143h-93.292
		c-4.497,0-8.143,3.646-8.143,8.143S203.771,88.503,208.268,88.503z"/>
	<path style="fill:#1D2328;" d="M208.268,63.061h93.292c4.498,0,8.143-3.646,8.143-8.143V26.546c0-13.7-11.146-24.845-24.845-24.845
		h-59.89c-13.7,0-24.845,11.145-24.845,24.845v28.372C200.125,59.415,203.771,63.061,208.268,63.061z M216.411,26.546
		c0-4.72,3.839-8.559,8.559-8.559h59.89c4.72,0,8.559,3.839,8.559,8.559v20.228h-77.006V26.546H216.411z"/>
	<path style="fill:#1D2328;" d="M84.494,63.061h93.292c4.497,0,8.143-3.646,8.143-8.143V26.546c0-13.7-11.145-24.845-24.845-24.845
		h-59.888c-13.7,0-24.845,11.145-24.845,24.845v28.372C76.35,59.415,79.996,63.061,84.494,63.061z M92.637,26.546
		c0-4.72,3.839-8.559,8.559-8.559h59.888c4.72,0,8.559,3.839,8.559,8.559v20.228H92.637V26.546z"/>
	<path style="fill:#1D2328;" d="M334.021,61.36h93.292c4.498,0,8.143-3.646,8.143-8.143V24.845C435.456,11.145,424.31,0,410.611,0
		h-59.888c-13.699,0-24.845,11.145-24.845,24.845v28.372C325.878,57.714,329.523,61.36,334.021,61.36z M342.164,24.845
		c0-4.72,3.839-8.559,8.559-8.559h59.888c4.72,0,8.559,3.839,8.559,8.559v20.228h-77.006V24.845z"/>
	<path style="fill:#1D2328;" d="M333.347,143.078l-30.324-23.948v-13.327c0-4.497-3.645-8.143-8.143-8.143
		c-4.498,0-8.143,3.646-8.143,8.143v17.273c0,2.492,1.141,4.846,3.097,6.391l33.42,26.393c3.328,2.627,6.461,7.559,8.309,12.519
		H178.267c1.848-4.96,4.981-9.891,8.31-12.52l33.42-26.392c1.955-1.544,3.097-3.899,3.097-6.391v-17.273
		c0-4.497-3.646-8.143-8.143-8.143c-4.497,0-8.143,3.646-8.143,8.143v13.327l-30.324,23.947
		c-9.237,7.295-16.204,21.673-16.204,33.444v293.932c0,22.909,18.638,41.547,41.547,41.547h106.179
		c22.909,0,41.547-18.638,41.547-41.547V176.521C349.55,164.748,342.584,150.371,333.347,143.078z M200.994,250.131h132.27v49.181
		h-156.7V184.664h156.7v49.181h-132.27c-4.497,0-8.143,3.646-8.143,8.143C192.851,246.485,196.496,250.131,200.994,250.131z
		 M176.564,315.598h156.7v49.181h-156.7V315.598z M308.003,495.714H201.824c-13.929,0-25.261-11.332-25.261-25.261v-23.92h24.429
		c4.497,0,8.143-3.646,8.143-8.143s-3.646-8.143-8.143-8.143h-24.429v-49.181h156.7v89.388
		C333.264,484.382,321.932,495.714,308.003,495.714z"/>
	<path style="fill:#1D2328;" d="M308.835,430.247h-75.269c-4.497,0-8.143,3.646-8.143,8.143s3.646,8.143,8.143,8.143h75.269
		c4.498,0,8.143-3.646,8.143-8.143S313.332,430.247,308.835,430.247z"/>
</g>
<g>
</g>
<g>
</g>
<g>
</g>
<g>
</g>
<g>
</g>
<g>
</g>
<g>
</g>
<g>
</g>
<g>
</g>
<g>
</g>
<g>
</g>
<g>
</g>
<g>
</g>
<g>
</g>
<g>
</g>
</svg>
