<?xml version="1.0" standalone="no"?>
<!DOCTYPE svg PUBLIC "-//W3C//DTD SVG 20010904//EN"
 "http://www.w3.org/TR/2001/REC-SVG-20010904/DTD/svg10.dtd">
<svg version="1.0" xmlns="http://www.w3.org/2000/svg"
 width="168.000000pt" height="151.000000pt" viewBox="0 0 168.000000 151.000000"
 preserveAspectRatio="xMidYMid meet">

<g transform="translate(0.000000,151.000000) scale(0.100000,-0.100000)"
fill="#000000" stroke="none">
<path d="M738 1343 c-20 -5 -32 -33 -14 -33 7 0 21 9 31 20 18 20 15 22 -17
13z"/>
<path d="M965 1330 c18 -20 45 -27 45 -12 0 8 -43 32 -57 32 -3 0 2 -9 12 -20z"/>
<path d="M672 1320 c-14 -23 -15 -30 -4 -30 5 0 14 11 20 25 14 30 2 34 -16 5z"/>
<path d="M1032 1315 c6 -14 15 -25 20 -25 12 0 9 12 -6 33 -19 25 -27 21 -14
-8z"/>
<path d="M416 1291 c-10 -11 -16 -26 -14 -33 3 -8 11 -2 23 15 21 33 15 45 -9
18z"/>
<path d="M1280 1303 c0 -6 9 -21 20 -34 15 -18 19 -20 20 -8 0 9 -9 24 -20 34
-11 10 -20 13 -20 8z"/>
<path d="M1080 1295 c0 -13 24 -55 32 -55 5 0 2 14 -7 30 -14 27 -25 38 -25
25z"/>
<path d="M615 1270 c-4 -12 -5 -24 -2 -27 3 -2 8 5 12 17 4 12 5 24 2 27 -3 2
-8 -5 -12 -17z"/>
<path d="M693 1283 c-14 -5 -18 -23 -5 -23 5 0 17 7 28 15 14 11 15 14 4 14
-8 0 -21 -3 -27 -6z"/>
<path d="M1004 1275 c22 -17 36 -19 36 -6 0 10 -24 21 -43 21 -7 0 -3 -7 7
-15z"/>
<path d="M367 1257 c-11 -29 -9 -53 4 -40 6 6 9 21 7 34 -3 21 -4 22 -11 6z"/>
<path d="M561 1248 c-7 -15 -11 -32 -9 -39 6 -19 30 26 26 48 -2 12 -6 10 -17
-9z"/>
<path d="M1140 1254 c0 -11 7 -29 15 -40 14 -19 14 -19 14 1 0 11 -6 29 -14
39 -15 20 -15 20 -15 0z"/>
<path d="M1340 1248 c0 -15 5 -30 10 -33 13 -8 13 25 0 45 -8 12 -10 9 -10
-12z"/>
<path d="M405 1220 c-10 -11 -13 -20 -7 -20 6 0 16 9 22 20 6 11 9 20 7 20 -2
0 -12 -9 -22 -20z"/>
<path d="M635 1230 c-8 -13 25 -13 45 0 12 8 9 10 -12 10 -15 0 -30 -4 -33
-10z"/>
<path d="M1040 1230 c20 -13 53 -13 45 0 -3 6 -18 10 -33 10 -21 0 -24 -2 -12
-10z"/>
<path d="M1300 1220 c6 -11 16 -20 22 -20 6 0 3 9 -7 20 -10 11 -20 20 -22 20
-2 0 1 -9 7 -20z"/>
<path d="M502 1190 c-14 -38 -8 -50 14 -29 10 11 12 22 6 39 -9 23 -9 23 -20
-10z"/>
<path d="M1197 1198 c-6 -21 7 -48 24 -48 7 0 -5 57 -14 67 -3 2 -7 -6 -10
-19z"/>
<path d="M331 1181 c-1 -27 2 -32 11 -23 8 8 8 17 0 34 -10 22 -11 21 -11 -11z"/>
<path d="M1375 1189 c-4 -12 -2 -26 4 -32 8 -8 11 -2 11 21 0 37 -6 41 -15 11z"/>
<path d="M575 1180 c-8 -13 35 -13 55 0 11 7 7 10 -17 10 -17 0 -35 -4 -38
-10z"/>
<path d="M1090 1180 c20 -13 63 -13 55 0 -3 6 -21 10 -38 10 -24 0 -28 -3 -17
-10z"/>
<path d="M291 1133 c-1 -24 4 -43 9 -43 12 0 12 37 0 65 -7 15 -9 10 -9 -22z"/>
<path d="M375 1159 c-11 -17 0 -20 21 -4 17 13 17 14 2 15 -9 0 -20 -5 -23
-11z"/>
<path d="M1324 1155 c21 -16 32 -13 21 4 -3 6 -14 11 -23 11 -15 -1 -15 -2 2
-15z"/>
<path d="M1416 1144 c-9 -24 -7 -54 4 -54 6 0 10 16 10 35 0 38 -4 44 -14 19z"/>
<path d="M510 1125 c-10 -12 -9 -15 6 -15 11 1 30 7 44 15 l25 14 -31 1 c-17
0 -37 -7 -44 -15z"/>
<path d="M1160 1125 c14 -8 33 -14 44 -15 15 0 16 3 6 15 -7 8 -27 15 -44 15
l-31 -1 25 -14z"/>
<path d="M450 1109 c-13 -24 -4 -41 10 -19 10 16 13 40 5 40 -2 0 -9 -9 -15
-21z"/>
<path d="M1252 1111 c2 -14 9 -26 16 -29 17 -5 15 10 -3 34 -15 18 -15 18 -13
-5z"/>
<path d="M353 1098 c-13 -6 -23 -17 -23 -25 0 -16 29 -4 50 21 14 18 5 19 -27
4z"/>
<path d="M1340 1094 c21 -25 50 -37 50 -21 0 8 -11 19 -25 25 -35 16 -40 15
-25 -4z"/>
<path d="M260 1058 c0 -41 15 -59 25 -28 4 11 0 29 -9 42 -16 22 -16 22 -16
-14z"/>
<path d="M482 1078 c-31 -31 -2 -38 35 -8 l26 20 -25 0 c-13 0 -29 -5 -36 -12z"/>
<path d="M1200 1070 c26 -20 50 -26 50 -12 0 16 -25 32 -49 32 l-26 0 25 -20z"/>
<path d="M1441 1068 c-9 -19 -10 -31 -3 -44 10 -17 11 -16 17 8 4 14 5 34 3
44 -2 14 -6 12 -17 -8z"/>
<path d="M407 1046 c-4 -10 -5 -21 -2 -24 9 -9 17 6 13 25 -3 17 -4 17 -11 -1z"/>
<path d="M1297 1040 c3 -11 9 -17 14 -15 10 7 1 35 -11 35 -5 0 -6 -9 -3 -20z"/>
<path d="M312 1020 c-27 -25 -30 -45 -4 -31 9 5 26 19 36 30 26 29 -2 29 -32
1z"/>
<path d="M1376 1019 c24 -27 54 -43 54 -30 0 15 -41 51 -58 51 -12 0 -11 -4 4
-21z"/>
<path d="M436 1015 c-7 -19 5 -19 30 0 19 14 19 14 -2 15 -12 0 -24 -7 -28
-15z"/>
<path d="M1254 1015 c25 -19 37 -19 30 0 -4 8 -16 15 -28 15 -21 -1 -21 -1 -2
-15z"/>
<path d="M385 989 c-4 -6 -5 -12 -2 -15 2 -3 7 2 10 11 7 17 1 20 -8 4z"/>
<path d="M1320 991 c0 -5 5 -13 10 -16 6 -3 10 -2 10 4 0 5 -4 13 -10 16 -5 3
-10 2 -10 -4z"/>
<path d="M245 978 c-4 -10 -4 -26 0 -35 8 -17 8 -17 12 0 3 9 3 25 0 35 -4 16
-4 16 -12 0z"/>
<path d="M1460 960 c0 -18 4 -29 10 -25 6 3 10 15 10 25 0 10 -4 22 -10 25 -6
4 -10 -7 -10 -25z"/>
<path d="M302 960 c-24 -23 -30 -52 -9 -44 16 6 52 64 39 64 -4 0 -18 -9 -30
-20z"/>
<path d="M409 963 c-13 -15 -12 -15 9 -4 23 12 28 21 13 21 -5 0 -15 -7 -22
-17z"/>
<path d="M1290 965 c7 -8 17 -15 22 -15 6 0 5 7 -2 15 -7 8 -17 15 -22 15 -6
0 -5 -7 2 -15z"/>
<path d="M1396 950 c20 -32 44 -47 44 -26 0 13 -41 56 -54 56 -4 0 1 -13 10
-30z"/>
<path d="M231 893 c-1 -18 4 -33 9 -33 12 0 12 17 0 45 -7 17 -9 15 -9 -12z"/>
<path d="M1476 897 c-5 -15 -6 -31 -2 -34 11 -11 18 5 14 34 l-4 28 -8 -28z"/>
<path d="M288 889 c-19 -11 -24 -29 -8 -29 5 0 14 9 20 20 12 23 12 23 -12 9z"/>
<path d="M1420 881 c11 -22 30 -29 30 -11 0 5 -9 14 -21 20 -19 11 -20 10 -9
-9z"/>
<path d="M780 853 c-38 -14 -60 -47 -60 -88 0 -62 22 -77 123 -83 94 -5 117
-18 117 -67 0 -66 -66 -96 -172 -79 -32 6 -58 7 -58 3 0 -21 160 -26 200 -6
34 17 53 61 46 103 -9 46 -46 64 -133 64 -37 0 -73 4 -80 8 -18 11 -30 52 -25
79 8 43 47 58 141 57 48 0 76 3 65 7 -22 9 -142 10 -164 2z"/>
<path d="M230 823 c0 -13 5 -23 10 -23 13 0 13 11 0 30 -8 12 -10 11 -10 -7z"/>
<path d="M1477 820 c-3 -11 -1 -20 4 -20 5 0 9 9 9 20 0 11 -2 20 -4 20 -2 0
-6 -9 -9 -20z"/>
<path d="M270 815 c-7 -9 -10 -18 -7 -21 3 -3 10 4 17 15 13 25 8 27 -10 6z"/>
<path d="M1440 812 c6 -13 14 -21 18 -18 3 4 -2 14 -12 24 -18 16 -18 16 -6
-6z"/>
<path d="M245 703 c16 -130 75 -245 180 -350 83 -84 193 -143 310 -168 325
-69 655 143 730 469 9 38 14 78 12 90 -5 27 -11 11 -27 -73 -32 -176 -168
-349 -335 -427 -126 -59 -312 -70 -445 -24 -146 49 -281 164 -345 293 -39 79
-65 164 -65 215 0 17 -5 32 -11 32 -8 0 -9 -18 -4 -57z"/>
</g>
</svg>
