<?xml version="1.0" encoding="iso-8859-1"?>
<!-- Generator: Adobe Illustrator 19.1.0, SVG Export Plug-In . SVG Version: 6.00 Build 0)  -->
<svg version="1.1" id="Capa_1" xmlns="http://www.w3.org/2000/svg" xmlns:xlink="http://www.w3.org/1999/xlink" x="0px" y="0px"
	 viewBox="0 0 368.35 368.35" style="enable-background:new 0 0 368.35 368.35;" xml:space="preserve">
<g>
	<path style="fill:#FFFFFF;" d="M141.934,15.171c-5.047,0.599-10.537,4.549-13.829,7.306l2.878,10.654
		c2.164-1.569,4.729-3.145,7.34-4.13C138.571,24.168,140.021,19.378,141.934,15.171z"/>
	<path style="fill:#FFA6BB;" d="M130.983,33.131L130.983,33.131l0.486,1.805l13.257,49.087c5.707-1.998,11.012-5.188,12.475-10.274
		c2.248-7.816-4.343-19.393-12.016-26.787c-5.016-4.834-6.88-10.626-6.897-16.438c-0.001-0.51,0.024-1.019,0.05-1.527
		c-0.005,0.002-0.01,0.003-0.015,0.005C135.711,29.987,133.147,31.562,130.983,33.131z"/>
	<path style="fill:#FFFFFF;" d="M224.914,202.757c0-10.749,1.201-21.543,3.566-31.073c0.635-15.357,1.174-28.538,1.537-37.631
		c1.416-35.385,10.971-48.343,14.426-51.905h-10c-3.455,3.562-13.01,16.521-14.426,51.905c-1.482,37.073-5.891,142.022-7.74,185.977
		h10c0.94-22.291,2.535-60.267,4.072-97.123C225.396,216.394,224.914,209.567,224.914,202.757z"/>
	<path style="fill:#FFFFFF;" d="M115.168,167.194c-17.1-63.398-31.992-118.642-31.994-118.731c0.572-0.502,4.41-1.728,8.422-2.914
		l-2.533-9.493c0,0-17.017,4.595-18.273,5.698c0.004,0.21,82.102,304.472,82.102,304.472c1.133,4.195,4.953,7.171,9.291,7.125
		c1.159-0.012,2.168-0.224,3.049-0.58c-0.854-3.166-14.891-55.188-31.121-115.356C125.43,214.668,119.362,189.601,115.168,167.194z"
		/>
	<polygon style="fill:#FFFFFF;" points="114.376,29.185 103.534,32.113 106.08,41.655 116.953,38.724 	"/>
	<path style="fill:#FFA6BB;" d="M296.887,335.03h-8.469l0.568,8.431h8.256C297.143,341.115,297.023,338.273,296.887,335.03z"/>
	<polygon style="fill:#FFA6BB;" points="261.147,343.46 273.953,343.46 273.383,335.03 261.147,335.03 	"/>
	<polygon style="fill:#FFA6BB;" points="234.58,343.46 246.147,343.46 246.147,335.03 235.15,335.03 	"/>
	<polygon style="fill:#FFFFFF;" points="211.291,343.46 219.545,343.46 220.115,335.03 211.646,335.03 	"/>
	<polygon style="fill:#FFFFFF;" points="264.758,35.997 263.689,25.997 244.844,25.997 240.447,67.148 251.516,67.148 
		254.844,35.997 	"/>
	<path style="fill:#FFFFFF;" d="M260.078,160.96c-2.211-3.896-4.371-5.898-5.81-5.898c-4.166,0-14.354,16.714-14.354,47.695
		c0,30.981,10.188,47.695,14.354,47.695c0.273,0,0.576-0.077,0.896-0.222c-4.182-7.37-8.541-21.529-8.541-41.797
		C246.623,179.492,255.512,163.006,260.078,160.96z"/>
	<path style="fill:none;" d="M115.168,167.193c-17.1-63.398-31.992-118.641-31.994-118.73c0.572-0.502,4.41-1.728,8.422-2.914
		l-2.533-9.493c0,0-17.017,4.595-18.273,5.698c0.004,0.21,82.102,304.472,82.102,304.472c1.133,4.195,4.953,7.171,9.291,7.125
		c1.159-0.012,2.167-0.223,3.049-0.58c-0.854-3.169-14.891-55.187-31.12-115.352C125.431,214.671,119.363,189.602,115.168,167.193z"
		/>
	<path style="fill:#BA82AA;" d="M144.598,260.974c-3.861-7.388-7.345-15.32-10.487-23.556
		c16.229,60.165,30.266,112.183,31.12,115.352c6.383-2.586,5.999-12.992,6.004-13.592
		C171.234,338.944,170.889,311.275,144.598,260.974z"/>
	<path style="fill:#BA82AA;" d="M115.168,167.193c-6.225-33.259-8.319-60.648-8.678-65.835L91.596,45.548
		c-4.012,1.187-7.85,2.412-8.422,2.914C83.176,48.552,98.069,103.795,115.168,167.193z"/>
	<g>
		<polygon style="fill:none;" points="116.953,38.724 116.955,38.723 114.387,29.215 103.544,32.143 106.082,41.654 		"/>
		<path style="fill:none;" d="M131.469,34.936l13.257,49.087c5.707-1.998,11.012-5.188,12.475-10.274
			c2.248-7.816-4.343-19.393-12.016-26.787c-5.016-4.834-6.88-10.626-6.897-16.438c-0.001-0.51,0.024-1.019,0.05-1.527
			c0.248-4.831,1.684-9.619,3.597-13.825c-5.047,0.599-10.537,4.549-13.829,7.306l2.877,10.655L131.469,34.936z"/>
		<path style="fill:none;" d="M144.598,260.974c-3.861-7.388-7.345-15.32-10.487-23.556c-8.68-22.747-14.748-47.816-18.942-70.226
			c-6.225-33.259-8.319-60.648-8.678-65.835L91.596,45.548l-2.533-9.493c0,0-17.017,4.595-18.273,5.698
			c0.004,0.21,82.102,304.472,82.102,304.472c1.133,4.195,4.953,7.171,9.291,7.125c1.159-0.012,2.167-0.223,3.049-0.58
			c6.383-2.586,5.999-12.992,6.004-13.592C171.234,338.944,170.889,311.275,144.598,260.974z"/>
		<polygon style="fill:#FFA6BB;" points="106.082,41.654 119.233,90.928 130.249,87.952 116.955,38.723 116.953,38.724 		"/>
		<path style="fill:#7F3960;" d="M186.213,338.25c-0.217-5.877-2.623-35.057-28.32-84.225
			c-25.594-48.964-34.035-126.185-35.993-148.282l19.345-5.224c21.002-4.483,28.112-14.769,30.372-22.626
			c4.369-15.194-5.9-31.978-16.023-41.732c-6.639-6.4,3.342-20.568,3.431-20.69c2.366-3.214,1.802-7.717-1.284-10.247
			c-14.434-11.834-32.457-1.123-41.965,8.079c0,0-49.918,13.48-53.76,16.295c-3.172,2.323-8.1,7.664-5.488,17.336l81.883,303.201
			c2.896,10.725,12.67,18.215,23.771,18.215c2.164,0,4.328-0.288,6.433-0.855C181.408,364.039,187.75,351.968,186.213,338.25z
			 M141.934,15.171c-1.912,4.206-3.349,8.994-3.597,13.825c-0.025,0.509-0.051,1.018-0.05,1.527
			c0.018,5.812,1.882,11.604,6.897,16.438c7.673,7.395,14.264,18.971,12.016,26.787c-1.463,5.087-6.768,8.276-12.475,10.274
			l-13.257-49.087l-0.487-1.804l-2.877-10.655C131.397,19.72,136.887,15.77,141.934,15.171z M114.387,29.215l2.567,9.508
			l13.295,49.229l-11.017,2.976l-13.15-49.275l-2.538-9.511L114.387,29.215z M165.231,352.77c-0.882,0.357-1.89,0.568-3.049,0.58
			c-4.338,0.046-8.158-2.93-9.291-7.125c0,0-82.098-304.262-82.102-304.472c1.257-1.104,18.273-5.698,18.273-5.698l2.533,9.493
			l14.895,55.809c0.358,5.187,2.453,32.576,8.678,65.835c4.194,22.409,10.263,47.479,18.942,70.226
			c3.143,8.235,6.626,16.168,10.487,23.556c26.291,50.301,26.636,77.97,26.637,78.204
			C171.23,339.778,171.614,350.184,165.231,352.77z"/>
	</g>
	<polygon style="fill:none;" points="234.58,343.46 246.147,343.46 246.147,335.03 235.15,335.03 	"/>
	<polygon style="fill:none;" points="211.291,343.46 219.545,343.46 220.115,335.03 211.646,335.03 	"/>
	<path style="fill:none;" d="M288.418,335.03l0.568,8.431h8.256c-0.1-2.346-0.219-5.188-0.355-8.431H288.418z"/>
	<polygon style="fill:none;" points="261.147,335.03 261.147,343.46 273.953,343.46 273.383,335.03 	"/>
	<polygon style="fill:#BA82AA;" points="254.844,35.997 251.516,67.148 268.088,67.148 264.758,35.997 264.758,35.997 	"/>
	<polygon style="fill:none;" points="211.291,343.46 219.545,343.46 220.115,335.03 211.646,335.03 	"/>
	<polygon style="fill:none;" points="268.088,67.148 264.758,35.997 263.689,25.997 244.844,25.997 240.447,67.148 251.516,67.148 	
		"/>
	<path style="fill:none;" d="M288.418,335.03l0.568,8.431h8.256c-0.1-2.346-0.219-5.188-0.355-8.431H288.418z"/>
	<polygon style="fill:none;" points="261.147,335.03 261.147,343.46 273.953,343.46 273.383,335.03 	"/>
	<polygon style="fill:none;" points="234.58,343.46 246.147,343.46 246.147,335.03 235.15,335.03 	"/>
	<path style="fill:#7F3960;" d="M303.504,133.453C301.842,91.9,289.48,75.801,283.52,70.406L277.889,17.7
		c-0.408-3.812-3.623-6.703-7.457-6.703h-32.328c-3.834,0-7.051,2.892-7.459,6.703l-5.631,52.705
		c-5.961,5.396-18.322,21.496-19.984,63.048c-1.57,39.275-9.054,217.19-9.054,217.19c0,6.846,5.449,7.816,7.494,7.816h101.596
		c2.045,0,7.494-1.495,7.494-7.816C312.559,348.962,305.449,182.134,303.504,133.453z M244.844,25.997h18.846l1.068,10l3.33,31.15
		h-16.572h-11.068L244.844,25.997z M219.545,343.46h-8.254l0.355-8.431h8.469L219.545,343.46z M212.277,320.03
		c1.85-43.954,6.258-148.903,7.74-185.977c1.416-35.385,10.971-48.343,14.426-51.905h10h29.646
		c3.457,3.562,13.01,16.521,14.426,51.905c1.428,35.704,5.592,134.911,7.74,185.977h-73.979H212.277z M246.147,343.46H234.58
		l0.57-8.431h10.996V343.46z M261.147,343.46v-8.431h12.236l0.57,8.431H261.147z M288.986,343.46l-0.568-8.431h8.469
		c0.137,3.243,0.256,6.085,0.355,8.431H288.986z"/>
	<path style="fill:#BA82AA;" d="M246.623,208.434c0,20.268,4.359,34.427,8.541,41.797l0,0c4.566-2.046,13.455-18.532,13.455-47.474
		c0-20.268-4.359-34.426-8.541-41.797l0,0C255.512,163.006,246.623,179.492,246.623,208.434z"/>
	<path style="fill:#FFA6BB;" d="M222.277,320.03h73.979c-2.148-51.065-6.312-150.272-7.74-185.977
		C287.1,98.668,277.547,85.71,274.09,82.148h-29.646c-3.455,3.562-13.01,16.521-14.426,51.905
		c-0.363,9.093-0.902,22.272-1.537,37.629c4.486-18.09,13.166-31.62,25.787-31.62c19.27,0,29.352,31.54,29.352,62.695
		c0,31.155-10.082,62.695-29.352,62.695c-15.059,0-24.508-19.261-27.918-42.547v0.001
		C224.812,259.763,223.217,297.738,222.277,320.03z"/>
	<path style="fill:#7F3960;" d="M254.268,265.452c19.27,0,29.352-31.54,29.352-62.695c0-31.155-10.082-62.695-29.352-62.695
		c-12.621,0-21.301,13.53-25.787,31.62c-2.365,9.53-3.566,20.325-3.566,31.075c0,6.809,0.482,13.637,1.436,20.148
		C229.76,246.192,239.209,265.452,254.268,265.452z M254.268,155.062c1.439,0,3.602,2.002,5.81,5.898
		c4.182,7.371,8.541,21.529,8.541,41.797c0,28.941-8.889,45.428-13.455,47.474c-0.32,0.145-0.623,0.222-0.896,0.222
		c-4.166,0-14.354-16.714-14.354-47.695C239.914,171.776,250.102,155.062,254.268,155.062z"/>
</g>
<g>
</g>
<g>
</g>
<g>
</g>
<g>
</g>
<g>
</g>
<g>
</g>
<g>
</g>
<g>
</g>
<g>
</g>
<g>
</g>
<g>
</g>
<g>
</g>
<g>
</g>
<g>
</g>
<g>
</g>
</svg>
